<svg width="512" height="512" viewBox="0 0 512 512" fill="none" xmlns="http://www.w3.org/2000/svg">
<g clip-path="url(#clip0_9_133)">
<path d="M345 0.000190169C349.431 1.65241 351.534 4.019 353.549 8.26118C355.528 13.9147 356.147 19.8121 356.892 25.7309C357.161 27.864 357.442 29.9951 357.727 32.1261C358.431 37.4129 359.115 42.702 359.797 47.9916C360.375 52.4777 360.962 56.9623 361.562 61.4455C361.839 63.5388 362.102 65.6335 362.365 67.7286C362.535 69.0038 362.705 70.2789 362.881 71.5927C363.025 72.7122 363.169 73.8317 363.318 74.9851C364.445 79.9669 367.066 83.3025 370.547 86.926C371.227 87.6408 371.908 88.3555 372.609 89.092C373.669 90.1912 373.669 90.1912 374.75 91.3127C379.397 96.1641 383.966 101.048 388.365 106.127C390.811 108.93 393.34 111.653 395.875 114.375C400.198 119.039 404.478 123.737 408.722 128.473C411.298 131.331 413.897 134.167 416.5 137C420.591 141.454 424.648 145.937 428.687 150.438C430.81 152.789 432.944 155.129 435.087 157.462C436.026 158.484 436.964 159.508 437.901 160.533C440.091 162.929 442.292 165.31 444.523 167.668C454.183 178.018 458.82 187.539 458.347 201.918C457.487 214.907 448.784 223.687 440.655 233.073C438.497 235.585 436.431 238.155 434.375 240.75C433.805 241.467 433.235 242.184 432.648 242.922C431.437 244.449 430.256 246.002 429.094 247.567C426.925 250.087 424.987 251.525 422.125 253.188C421.302 253.676 420.48 254.165 419.633 254.668C410.386 259.346 400.648 259.948 390.775 257.055C381.355 253.789 372.18 249.878 363 246C357.236 243.572 351.466 241.159 345.687 238.768C343.3 237.771 340.925 236.75 338.55 235.727C327.203 230.93 327.203 230.93 315 231C312.02 232.332 312.02 232.332 310 234C309.34 234 308.68 234 308 234C307.567 234.866 307.567 234.866 307.125 235.75C306.437 237.125 305.723 238.487 304.965 239.824C303.054 244.132 303.251 248.411 304 253C305.783 257.07 308.355 260.446 311 264C311.981 265.364 312.96 266.73 313.937 268.098C316.139 271.171 318.355 274.234 320.582 277.289C324.895 283.217 329.117 289.207 333.328 295.207C334.945 297.511 336.579 299.797 338.234 302.074C338.858 302.937 339.482 303.799 340.125 304.688C340.643 305.393 341.161 306.098 341.695 306.824C344.992 312.323 345.278 317.463 345.195 323.68C345.191 324.899 345.191 324.899 345.187 326.143C345.175 328.72 345.15 331.298 345.125 333.875C345.115 335.63 345.106 337.386 345.097 339.141C345.075 343.427 345.041 347.714 345 352C345.877 351.979 346.755 351.958 347.658 351.937C350.935 351.868 354.211 351.818 357.488 351.78C358.902 351.76 360.316 351.733 361.73 351.698C363.771 351.65 365.81 351.627 367.851 351.61C369.077 351.589 370.302 351.568 371.565 351.546C375.675 352.089 377.786 353.431 381 356C384.243 360.474 385.128 364.321 385.113 369.769C385.113 370.709 385.113 371.65 385.113 372.619C385.108 373.627 385.103 374.634 385.097 375.672C385.095 377.228 385.095 377.228 385.093 378.816C385.088 382.128 385.075 385.439 385.062 388.75C385.057 390.996 385.053 393.242 385.049 395.488C385.038 400.992 385.021 406.496 385 412C385.877 411.979 386.755 411.958 387.658 411.937C390.935 411.868 394.211 411.818 397.488 411.78C398.902 411.76 400.316 411.733 401.73 411.698C403.771 411.65 405.81 411.627 407.851 411.61C409.077 411.589 410.302 411.568 411.565 411.546C415.675 412.089 417.786 413.431 421 416C424.833 421.287 425.127 425.706 425.161 432.136C425.166 432.847 425.171 433.558 425.176 434.291C425.191 436.638 425.197 438.985 425.203 441.332C425.209 442.969 425.214 444.605 425.22 446.242C425.231 449.673 425.237 453.103 425.24 456.534C425.246 460.918 425.27 465.303 425.298 469.687C425.317 473.068 425.322 476.449 425.323 479.83C425.326 481.446 425.334 483.062 425.348 484.678C425.365 486.944 425.363 489.21 425.356 491.476C425.36 492.763 425.364 494.05 425.367 495.376C424.687 502.088 422.135 506.523 417 511C414.324 512.338 412.276 512.133 409.279 512.143C408.054 512.149 406.828 512.155 405.566 512.162C404.194 512.164 402.822 512.166 401.45 512.168C400.002 512.173 398.554 512.179 397.106 512.185C393.113 512.201 389.119 512.21 385.126 512.219C381.704 512.227 378.282 512.239 374.861 512.25C362.602 512.292 350.344 512.319 338.086 512.344C337.119 512.346 336.151 512.348 335.155 512.35C315.958 512.389 296.762 512.423 277.565 512.445C273.342 512.45 269.12 512.455 264.898 512.46C263.848 512.461 262.799 512.463 261.718 512.464C244.716 512.485 227.715 512.534 210.713 512.594C193.266 512.655 175.818 512.69 158.371 512.699C148.572 512.705 138.773 512.723 128.973 512.771C120.628 512.811 112.283 512.828 103.937 512.814C99.6786 512.808 95.421 512.813 91.1627 512.848C87.2624 512.88 83.3635 512.88 79.4633 512.854C78.054 512.851 76.6447 512.859 75.2356 512.88C63.421 513.048 63.421 513.048 58.1678 508.635C53.8673 504.295 53.8476 500.248 53.8387 494.395C53.8337 493.623 53.8287 492.85 53.8236 492.054C53.809 489.497 53.8022 486.94 53.7967 484.383C53.7909 482.606 53.7852 480.828 53.7794 479.051C53.7689 475.324 53.763 471.596 53.7596 467.869C53.7541 463.095 53.73 458.321 53.7016 453.548C53.6829 449.876 53.6778 446.204 53.6762 442.532C53.6732 440.772 53.6652 439.013 53.6521 437.253C53.635 434.79 53.6369 432.327 53.6434 429.864C53.6341 429.139 53.6249 428.413 53.6154 427.666C53.6663 421.496 55.4956 418.535 59.7268 414.218C63.642 411.565 65.6818 411.415 70.367 411.512C71.0466 411.519 71.7262 411.526 72.4263 411.533C74.577 411.561 76.7249 411.624 78.8748 411.688C80.3409 411.713 81.8071 411.736 83.2732 411.756C86.8496 411.811 90.4244 411.897 93.9998 412C93.9931 411.385 93.9865 410.77 93.9796 410.136C93.9132 403.728 93.868 397.32 93.835 390.913C93.8199 388.522 93.7995 386.131 93.7735 383.74C93.7371 380.302 93.7201 376.864 93.7068 373.426C93.6913 372.358 93.6759 371.29 93.6599 370.19C93.6583 363.034 94.7047 359.69 99.3826 354.207C104.097 350.483 110.189 351.479 115.875 351.688C117.04 351.71 118.205 351.733 119.406 351.756C122.272 351.815 125.135 351.897 128 352C127.834 351.246 127.668 350.492 127.497 349.716C126.722 346.186 125.955 342.656 125.187 339.125C124.926 337.941 124.665 336.756 124.396 335.535C124.135 334.33 123.874 333.125 123.605 331.883C123.309 330.622 123.012 329.361 122.707 328.062C122.097 325.129 121.971 322.468 122.056 319.476C122.045 314.53 121.799 310.214 119 306C111.951 300.324 102.961 297.407 94.5747 294.277C91.4362 293.089 88.33 291.822 85.2205 290.561C80.6614 288.721 76.0901 286.923 71.4986 285.166C64.9453 282.626 59.711 280.384 54.9998 275C43.1611 239.484 63.6487 177.938 77.9998 145C78.4274 144.017 78.8551 143.035 79.2957 142.022C88.3618 121.532 99.6289 102.411 115 86.0002C115.552 85.4054 116.105 84.8107 116.674 84.1979C140.125 59.196 168.823 43.9884 202 36.0002C202.749 35.8194 203.498 35.6386 204.27 35.4523C228.615 29.9536 256.424 31.4642 280.769 36.0275C282.098 36.273 282.098 36.273 283.454 36.5234C285.137 36.8385 286.816 37.1724 288.491 37.5258C292.761 38.2721 294.309 38.461 298.039 35.9728C298.892 35.0125 299.746 34.0521 300.625 33.0627C301.092 32.5527 301.56 32.0427 302.041 31.5173C303.388 30.0361 304.695 28.5188 306 27.0002C306.593 26.3209 307.186 25.6415 307.797 24.9416C308.865 23.7121 309.927 22.4776 310.984 21.2385C315.282 16.4664 319.916 12.005 324.489 7.49873C325.931 6.06875 327.352 4.6189 328.773 3.16816C333.371 -1.30887 338.889 -0.671881 345 0.000190169ZM327 50.0002C325.288 51.6844 323.58 53.3718 321.875 55.0627C321.368 55.5642 320.861 56.0657 320.338 56.5825C317.657 59.2589 315.153 61.9516 312.812 64.9377C307.672 71.0738 299.769 72.8102 292.312 74.7502C251.708 85.8916 211.958 107.048 186 141C185.274 141.899 184.548 142.797 183.801 143.723C149.238 187.575 143.94 247.533 149.945 301.102C151.827 328.512 151.827 328.512 161 352C162.974 352.097 164.952 352.122 166.929 352.12C168.217 352.122 169.506 352.123 170.834 352.125C172.275 352.121 173.717 352.117 175.158 352.114C176.666 352.113 178.173 352.114 179.681 352.114C183.786 352.114 187.891 352.109 191.996 352.102C196.282 352.095 200.567 352.095 204.853 352.094C212.974 352.09 221.094 352.082 229.215 352.072C238.458 352.061 247.701 352.056 256.944 352.051C275.963 352.04 294.981 352.022 314 352C314.144 347.908 314.247 343.816 314.316 339.722C314.344 338.334 314.383 336.945 314.434 335.558C314.892 322.542 311.522 315.447 302.796 306.018C299.838 302.695 297.384 299.042 294.875 295.375C293.895 293.974 292.913 292.575 291.929 291.176C291.448 290.488 290.967 289.801 290.471 289.092C288.974 286.964 287.46 284.847 285.945 282.731C275.517 268.047 271.64 256.053 273 238C275.007 227.07 281.029 216.576 289.695 209.563C299.09 203.193 308.673 199.647 320 199.563C320.749 199.53 321.498 199.497 322.269 199.463C340.7 199.295 360.217 211.035 376.948 217.875C380.631 219.38 384.319 220.872 388.008 222.363C389.703 223.062 389.703 223.062 391.432 223.774C392.485 224.199 393.537 224.623 394.621 225.06C395.542 225.436 396.463 225.811 397.411 226.199C400.124 227.039 402.179 227.264 405 227C406.963 225.539 406.963 225.539 408.625 223.375C409.64 222.159 409.64 222.159 410.676 220.918C411.443 219.955 412.21 218.992 413 218C413.458 217.427 413.916 216.855 414.388 216.264C417.629 212.204 420.828 208.114 424 204C424.598 203.259 425.196 202.518 425.812 201.754C427.233 199.972 427.233 199.972 427.187 197.25C425.671 193.099 423.35 191.04 420.164 188.051C418.225 186.214 416.483 184.341 414.75 182.313C411.619 178.675 408.387 175.144 405.125 171.625C400.802 166.961 396.522 162.263 392.277 157.528C389.702 154.669 387.103 151.833 384.5 149C380.408 144.547 376.352 140.064 372.312 135.563C369.724 132.694 367.114 129.845 364.5 127C360.413 122.552 356.357 118.078 352.332 113.574C350.618 111.682 348.889 109.813 347.137 107.957C346.402 107.173 346.402 107.173 345.652 106.373C344.266 104.897 342.873 103.427 341.48 101.957C335.402 94.7107 334.102 88.6831 332.875 79.4377C332.709 78.2827 332.543 77.1277 332.371 75.9377C331.672 71.0476 331.017 66.152 330.375 61.2541C330.21 60.0153 330.045 58.7765 329.875 57.5002C329.748 56.4586 329.622 55.4171 329.492 54.3439C329.185 51.8211 329.185 51.8211 327 50.0002ZM145 100C144.167 100.762 143.334 101.524 142.476 102.309C126.138 117.931 114.841 138.416 106 159C105.691 159.716 105.382 160.432 105.064 161.17C96.2013 182.208 91.4425 205.123 88.0623 227.625C87.9605 228.3 87.8587 228.974 87.7539 229.669C86.4035 238.768 85.5321 247.82 84.9998 257C88.7505 258.697 92.5042 260.388 96.2608 262.072C97.537 262.646 98.8124 263.221 100.087 263.798C101.924 264.629 103.765 265.453 105.605 266.278C106.71 266.775 107.815 267.273 108.954 267.785C111.668 268.868 114.123 269.548 117 270C117.039 269.076 117.079 268.152 117.12 267.2C118.998 225.324 124.815 185.35 145 148C145.324 147.391 145.649 146.782 145.984 146.154C158.325 123.136 176.349 102.909 197.244 87.3117C198.388 86.457 199.528 85.5959 200.662 84.7277C210.792 76.9758 221.733 70.9422 233 65.0002C233 64.6702 233 64.3402 233 64.0002C200.733 62.4637 168.14 78.5832 145 100ZM125 382C125 391.9 125 401.8 125 412C200.57 412 276.14 412 354 412C354 402.1 354 392.2 354 382C278.43 382 202.86 382 125 382ZM84.9998 442C84.9998 455.2 84.9998 468.4 84.9998 482C186.97 482 288.94 482 394 482C394 468.8 394 455.6 394 442C292.03 442 190.06 442 84.9998 442Z" fill="white"/>
<path d="M320 131C324.497 133.13 327.025 135.426 329 140C330.371 146.07 330.157 149.422 327 155C321.879 160.745 321.879 160.745 317.461 161.344C311.637 161.638 307.855 161.603 303.312 157.687C299.676 154.096 298.842 151.175 298.75 146.125C298.837 140.137 300.559 137.662 304.438 133.187C308.94 129.622 314.587 130.198 320 131Z" fill="white"/>
</g>
<defs>
<clipPath id="clip0_9_133">
<rect width="512" height="512" fill="white"/>
</clipPath>
</defs>
</svg>
